#!OML:ASF I:\Actors\actors\Patient Classification 2\Patient 1\Session 1\actor1.ASF
:FULLY-SPECIFIED
:DEGREES
614
root -0.413984 18.821 4.14258 5.2589 6.4133 -2.10191
lowerback 13.2725 5.7858 -0.916805
upperback -0.748652 7.67297 1.40624
thorax -8.54176 3.78271 0.430881
lowerneck -17.0251 -7.83464 -4.14535
upperneck 21.3603 -10.9607 4.8381
head 10.1233 -4.82816 0.848577
rclavicle 3.43897e-014 -1.15295e-014
rhumerus 10.3822 30.2206 -69.1042
rradius 81.3456
rwrist 47.2202
rhand -39.3782 -57.5307
rfingers 7.12502
rthumb -12.3683 -87.1448
lclavicle 3.43897e-014 -1.15295e-014
lhumerus -14.7999 -43.514 91.0978
lradius 119.005
lwrist 49.6089
lhand -20.5848 -20.7322
lfingers 7.12502
lthumb 5.77526 9.16912
rfemur 0 0 0
rtibia 0
rfoot 0 0
rtoes 0
lfemur -14.7226 -7.04893 -12.3727
ltibia 25.1754
lfoot -17.7757 6.55025
ltoes -56.2183
615
root -0.418865 18.8223 4.1538 5.32878 6.32563 -2.14887
lowerback 13.3008 6.00728 -1.27326
upperback -0.757382 7.8998 1.27655
thorax -8.60395 3.90376 0.436321
lowerneck -17.1945 -8.05652 -4.44648
upperneck 20.7079 -11.3038 5.4948
head 10.0022 -4.94645 1.07113
rclavicle 8.69683e-014 2.5842e-014
rhumerus 10.9199 30.708 -69.3679
rradius 80.7264
rwrist 47.5398
rhand -40.1835 -55.9522
rfingers 7.12502
rthumb -13.1447 -85.5178
lclavicle 8.69683e-014 2.5842e-014
lhumerus -14.6007 -43.7546 91.0979
lradius 119.038
lwrist 49.6631
lhand -20.2309 -20.7434
lfingers 7.12502
lthumb 6.1169 9.14825
rfemur 0 0 0
rtibia 0
rfoot 0 0
rtoes 0
lfemur -14.7411 -7.06912 -12.3059
ltibia 25.1761
lfoot -17.8351 6.70501
ltoes -56.2306
616
root -0.423308 18.8231 4.16617 5.41668 6.2709 -2.19319
lowerback 13.2543 6.23783 -1.62977
upperback -0.763547 8.13908 1.14312
thorax -8.62247 4.0316 0.442488
lowerneck -17.283 -8.29751 -4.62024
upperneck 19.9462 -11.6627 6.0173
head 9.8154 -5.08397 1.22807
rclavicle 3.89121e-014 7.15625e-015
rhumerus 11.5339 31.1405 -69.3656
rradius 80.2783
rwrist 47.2457
rhand -41.1642 -52.5892
rfingers 7.12502
rthumb -14.0899 -82.0916
lclavicle 3.89121e-014 7.15625e-015
lhumerus -14.3934 -44.0977 91.0814
lradius 119.047
lwrist 49.7813
lhand -20.0459 -20.7963
lfingers 7.12502
lthumb 6.29549 9.09017
rfemur 0 0 0
rtibia 0
rfoot 0 0
rtoes 0
lfemur -14.7788 -7.13808 -12.2381
ltibia 25.1845
lfoot -17.9315 6.85689
ltoes -56.1646
617
root -0.426355 18.8233 4.17901 5.50757 6.28278 -2.25464
lowerback 13.1388 6.43204 -1.93273
upperback -0.769907 8.34004 1.00797
thorax -8.59421 4.13938 0.433551
lowerneck -17.3544 -8.52333 -4.79555
upperneck 19.2726 -12.0115 6.58238
head 9.66356 -5.21153 1.3994
rclavicle 7.55382e-014 1.82882e-014
rhumerus 12.2999 31.5188 -69.1067
rradius 80.0581
rwrist 46.6405
rhand -40.9157 -51.525
rfingers 7.12502
rthumb -13.8504 -81.0438
lclavicle 7.55382e-014 1.82882e-014
lhumerus -14.1202 -44.4007 90.9288
lradius 119.028
lwrist 49.6366
lhand -20.0804 -20.7468
lfingers 7.12502
lthumb 6.26219 9.14059
rfemur 0 0 0
rtibia 0
rfoot 0 0
rtoes 0
lfemur -14.8449 -7.29887 -12.15
ltibia 25.2091
lfoot -18.0443 7.02398
ltoes -56.1588
618
root -0.428276 18.8238 4.19296 5.57707 6.32884 -2.3435
lowerback 12.9876 6.57838 -2.18993
upperback -0.781295 8.48816 0.894277
thorax -8.54677 4.22064 0.437722
lowerneck -17.4794 -8.73404 -4.9789
upperneck 18.8363 -12.3386 7.09919
head 9.60422 -5.32762 1.55278
rclavicle 4.37326e-014 -1.39149e-015
rhumerus 13.2647 31.7253 -68.6209
rradius 79.8354
rwrist 46.2471
rhand -40.5359 -52.1447
rfingers 7.12502
rthumb -13.4843 -81.6881
lclavicle 4.37326e-014 -1.39149e-015
lhumerus -13.874 -44.6271 90.7011
lradius 118.975
lwrist 49.4234
lhand -19.9973 -20.8187
lfingers 7.12502
lthumb 6.34241 9.06637
rfemur 0 0 0
rtibia 0
rfoot 0 0
rtoes 0
lfemur -14.9138 -7.45072 -12.0367
ltibia 25.2513
lfoot -18.1133 7.17012
ltoes -56.1886
619
root -0.428824 18.8248 4.20838 5.59352 6.40349 -2.42768
lowerback 12.8428 6.66795 -2.42378
upperback -0.792236 8.56669 0.798099
thorax -8.49958 4.26768 0.462114
lowerneck -17.6357 -8.90312 -5.06995
upperneck 18.5744 -12.6033 7.44226
head 9.59068 -5.42176 1.63874
rclavicle 1.19917e-013 -3.1408e-014
rhumerus 14.5028 31.7831 -67.9423
rradius 79.5869
rwrist 45.8128
rhand -39.4458 -53.2942
rfingers 7.12502
rthumb -12.4335 -82.9044
lclavicle 1.19917e-013 -3.1408e-014
lhumerus -13.668 -44.7528 90.4604
lradius 118.963
lwrist 49.4502
lhand -19.917 -20.8083
lfingers 7.12502
lthumb 6.41992 9.07445
rfemur 0 0 0
rtibia 0
rfoot 0 0
rtoes 0
lfemur -14.938 -7.51123 -11.9435
ltibia 25.3082
lfoot -18.1374 7.22696
ltoes -56.1855
620
root -0.428472 18.8244 4.22213 5.54991 6.53728 -2.54811
lowerback 12.7401 6.67568 -2.54337
upperback -0.804738 8.55414 0.711271
thorax -8.45842 4.26564 0.449471
lowerneck -17.753 -9.00412 -5.07085
upperneck 18.3788 -12.7909 7.73084
head 9.57896 -5.47932 1.70472
rclavicle -5.27525e-014 -1.55052e-014
rhumerus 16.2126 31.7043 -66.9109
rradius 79.2416
rwrist 45.6454
rhand -39.8679 -53.6695
rfingers 7.12502
rthumb -12.8405 -83.2545
lclavicle -5.27525e-014 -1.55052e-014
lhumerus -13.5669 -44.7528 90.1851
lradius 119.013
lwrist 49.5171
lhand -19.8992 -20.6805
lfingers 7.12502
lthumb 6.43714 9.20168
rfemur 0 0 0
rtibia 0
rfoot 0 0
rtoes 0
lfemur -14.9292 -7.52144 -11.8168
ltibia 25.3755
lfoot -18.1364 7.17248
ltoes -56.258
621
root -0.429276 18.824 4.23258 5.4725 6.7142 -2.68942
lowerback 12.6603 6.63558 -2.57346
upperback -0.817683 8.4919 0.632906
thorax -8.41651 4.23577 0.40546
lowerneck -17.7894 -9.09774 -5.01015
upperneck 18.2498 -12.9784 7.95592
head 9.56735 -5.54016 1.74214
rclavicle 5.79457e-014 -1.6201e-014
rhumerus 18.4392 31.3027 -65.3919
rradius 78.5085
rwrist 46.7807
rhand -40.6794 -52.9628
rfingers 7.12502
rthumb -13.6226 -82.4971
lclavicle 5.79457e-014 -1.6201e-014
lhumerus -13.5147 -44.7228 89.9295
lradius 119.055
lwrist 49.5497
lhand -19.9614 -20.6186
lfingers 7.12502
lthumb 6.37711 9.26536
rfemur 0 0 0
rtibia 0
rfoot 0 0
rtoes 0
lfemur -14.9107 -7.59198 -11.6518
ltibia 25.4403
lfoot -18.1499 7.05983
ltoes -56.3138
622
root -0.430613 18.8243 4.24268 5.40616 6.86644 -2.79781
lowerback 12.5424 6.57186 -2.59581
upperback -0.838833 8.39999 0.545652
thorax -8.35825 4.19144 0.358014
lowerneck -17.7863 -9.1823 -4.9797
upperneck 18.2539 -13.1566 8.16996
head 9.59621 -5.59682 1.78198
rclavicle 1.07095e-014 -3.57812e-015
rhumerus 21.0559 30.8757 -63.5039
rradius 78.3
rwrist 45.9364
rhand -40.8128 -53.1766
rfingers 7.12502
rthumb -13.7513 -82.7022
lclavicle 1.07095e-014 -3.57812e-015
lhumerus -13.4323 -44.7106 89.6613
lradius 119.004
lwrist 49.6085
lhand -20.0091 -20.879
lfingers 7.12502
lthumb 6.33099 9.00642
rfemur 0 0 0
rtibia 0
rfoot 0 0
rtoes 0
lfemur -14.8852 -7.65447 -11.5158
ltibia 25.483
lfoot -18.1489 6.94109
ltoes -56.3154
623
root -0.428976 18.8236 4.256 5.36682 6.93114 -2.88228
lowerback 12.3187 6.49926 -2.61151
upperback -0.856792 8.29917 0.440461
thorax -8.23254 4.14313 0.302522
lowerneck -17.8105 -9.19978 -4.89131
upperneck 18.364 -13.2586 8.34781
head 9.65526 -5.6134 1.8105
rclavicle -3.59893e-014 1.56046e-014
rhumerus 23.8622 30.1636 -61.5828
rradius 78.1076
rwrist 45.5893
rhand -40.715 -53.0135
rfingers 7.12502
rthumb -13.657 -82.5454
lclavicle -3.59893e-014 1.56046e-014
lhumerus -13.3094 -44.663 89.2811
lradius 118.958
lwrist 49.6433
lhand -20.0137 -21.039
lfingers 7.12502
lthumb 6.32658 8.84651
rfemur 0 0 0
rtibia 0
rfoot 0 0
rtoes 0
lfemur -14.8316 -7.66689 -11.4242
ltibia 25.4954
lfoot -18.1503 6.87256
ltoes -56.3262
624
root -0.425179 18.8228 4.27121 5.33361 6.89956 -2.93068
lowerback 12.0425 6.45086 -2.61491
upperback -0.862281 8.23303 0.32073
thorax -8.06124 4.11115 0.224877
lowerneck -17.8277 -9.20384 -4.79883
upperneck 18.4713 -13.3455 8.534
head 9.71169 -5.62185 1.84396
rclavicle -3.47997e-014 1.27719e-014
rhumerus 26.8502 29.2202 -59.5745
rradius 77.8921
rwrist 45.1422
rhand -40.9772 -52.2755
rfingers 7.12502
rthumb -13.9096 -81.7903
lclavicle -3.47997e-014 1.27719e-014
lhumerus -13.1081 -44.5631 88.8595
lradius 119.008
lwrist 49.654
lhand -20.3198 -20.788
lfingers 7.12502
lthumb 6.03105 9.1062
rfemur 0 0 0
rtibia 0
rfoot 0 0
rtoes 0
lfemur -14.7247 -7.75011 -11.3841
ltibia 25.4764
lfoot -18.2174 6.88851
ltoes -56.2238
625
root -0.421263 18.8231 4.28612 5.31728 6.79786 -2.92482
lowerback 11.7647 6.42781 -2.59905
upperback -0.880198 8.20219 0.179206
thorax -7.8979 4.09501 0.106345
lowerneck -17.7239 -9.23651 -4.75813
upperneck 18.4804 -13.4569 8.74188
head 9.71895 -5.6506 1.89461
rclavicle -1.54307e-014 -1.44119e-014
rhumerus 29.8367 28.1624 -57.5032
rradius 77.705
rwrist 44.345
rhand -41.0618 -51.8279
rfingers 7.12502
rthumb -13.9911 -81.3371
lclavicle -1.54307e-014 -1.44119e-014
lhumerus -12.8502 -44.4981 88.4585
lradius 119.039
lwrist 49.899
lhand -20.6681 -20.8427
lfingers 7.12502
lthumb 5.6948 9.06079
rfemur 0 0 0
rtibia 0
rfoot 0 0
rtoes 0
lfemur -14.5986 -7.83009 -11.4082
ltibia 25.4283
lfoot -18.307 6.95662
ltoes -56.0964
